<?xml version="1.0" encoding="utf-8"?>
<!-- Generator: Adobe Illustrator 22.1.0, SVG Export Plug-In . SVG Version: 6.00 Build 0)  -->
<svg version="1.1" id="Layer_1" xmlns="http://www.w3.org/2000/svg" xmlns:xlink="http://www.w3.org/1999/xlink" x="0px" y="0px"
	 viewBox="0 0 100 100" style="enable-background:new 0 0 100 100;" xml:space="preserve">
<g>
	<path d="M95.4,48.7L60.9,6.9c-0.7-0.9-2-1-2.8-0.3c-0.9,0.7-1,2-0.3,2.8L91.3,50L57.9,90.5c-0.7,0.9-0.6,2.1,0.3,2.8
		c0.4,0.3,0.8,0.5,1.3,0.5c0.6,0,1.1-0.2,1.5-0.7l34.5-41.8C96.1,50.5,96.1,49.5,95.4,48.7z"/>
	<path d="M77.5,48.7L48.2,13.1c-0.7-0.9-2-1-2.8-0.3c-0.9,0.7-1,2-0.3,2.8L73.4,50L45.2,84.3c-0.7,0.9-0.6,2.1,0.3,2.8
		c0.4,0.3,0.8,0.5,1.3,0.5c0.6,0,1.1-0.2,1.5-0.7l29.3-35.6C78.2,50.5,78.2,49.5,77.5,48.7z"/>
	<path d="M57.8,48.7L36.6,23c-0.7-0.9-2-1-2.8-0.3c-0.9,0.7-1,2-0.3,2.8L53.7,50L33.6,74.4c-0.7,0.9-0.6,2.1,0.3,2.8
		c0.4,0.3,0.8,0.5,1.3,0.5c0.6,0,1.1-0.2,1.5-0.7l21.2-25.7C58.5,50.5,58.5,49.5,57.8,48.7z"/>
</g>
</svg>
