<?xml version="1.0" encoding="utf-8"?>
<!-- Generator: Adobe Illustrator 22.1.0, SVG Export Plug-In . SVG Version: 6.00 Build 0)  -->
<svg version="1.1" id="Layer_1" xmlns="http://www.w3.org/2000/svg" xmlns:xlink="http://www.w3.org/1999/xlink" x="0px" y="0px"
	 viewBox="0 0 100 100" style="enable-background:new 0 0 100 100;" xml:space="preserve">
<path d="M91.8,42.6c-0.4,0-0.9-0.1-1.3-0.5L50,8.7L9.5,42.1c-0.9,0.7-2.1,0.6-2.8-0.3c-0.7-0.8-0.6-2,0.2-2.7L48.7,4.6
	c0.7-0.6,1.8-0.6,2.5,0L93,39.1c0.9,0.7,1,2,0.3,2.8C92.9,42.4,92.4,42.6,91.8,42.6z"/>
<path d="M14.4,55.3c-0.6,0-1.1-0.2-1.5-0.7c-0.7-0.9-0.6-2.1,0.3-2.8l35.6-29.3c0.7-0.6,1.8-0.6,2.5,0l35.6,29.3
	c0.9,0.7,1,2,0.3,2.8c-0.7,0.9-2,1-2.8,0.3L50,26.6L15.7,54.8C15.3,55.2,14.8,55.3,14.4,55.3z"/>
<path d="M75.7,66.9c-0.4,0-0.9-0.1-1.3-0.5L50,46.3L25.6,66.4c-0.9,0.7-2.1,0.6-2.8-0.3c-0.7-0.9-0.6-2.1,0.3-2.8l25.7-21.2
	c0.7-0.6,1.8-0.6,2.5,0L77,63.4c0.9,0.7,1,2,0.3,2.8C76.8,66.7,76.3,66.9,75.7,66.9z"/>
</svg>
