<?xml version="1.0" encoding="utf-8"?>
<!-- Generator: Adobe Illustrator 22.1.0, SVG Export Plug-In . SVG Version: 6.00 Build 0)  -->
<svg version="1.1" id="Layer_1" xmlns="http://www.w3.org/2000/svg" xmlns:xlink="http://www.w3.org/1999/xlink" x="0px" y="0px"
	 viewBox="0 0 100 100" style="enable-background:new 0 0 100 100;" xml:space="preserve">
<g>
	<path d="M8.7,50L42.1,9.5c0.7-0.9,0.6-2.1-0.3-2.8c-0.8-0.7-2-0.6-2.7,0.2L4.6,48.7c-0.6,0.7-0.6,1.8,0,2.5L39.1,93
		c0.4,0.5,1,0.7,1.5,0.7c0.4,0,0.9-0.2,1.3-0.5c0.9-0.7,1-2,0.3-2.8L8.7,50z"/>
	<path d="M26.6,50l28.3-34.3c0.7-0.9,0.6-2.1-0.3-2.8c-0.9-0.7-2.1-0.6-2.8,0.3L22.5,48.7c-0.6,0.7-0.6,1.8,0,2.5l29.3,35.6
		c0.4,0.5,1,0.7,1.5,0.7c0.4,0,0.9-0.1,1.3-0.5c0.9-0.7,1-2,0.3-2.8L26.6,50z"/>
	<path d="M46.3,50l20.2-24.4c0.7-0.9,0.6-2.1-0.3-2.8c-0.8-0.7-2.1-0.6-2.8,0.3L42.2,48.7c-0.6,0.7-0.6,1.8,0,2.5L63.4,77
		c0.4,0.5,1,0.7,1.5,0.7c0.4,0,0.9-0.1,1.3-0.5c0.9-0.7,1-2,0.3-2.8L46.3,50z"/>
</g>
</svg>
