<?xml version="1.0" encoding="utf-8"?>
<!-- Generator: Adobe Illustrator 22.1.0, SVG Export Plug-In . SVG Version: 6.00 Build 0)  -->
<svg version="1.1" id="Layer_1" xmlns="http://www.w3.org/2000/svg" xmlns:xlink="http://www.w3.org/1999/xlink" x="0px" y="0px"
	 viewBox="0 0 100 100" style="enable-background:new 0 0 100 100;" xml:space="preserve">
<g>
	<path d="M93.3,58.1c-0.7-0.9-2-1-2.8-0.3L50,91.3L9.5,57.9c-0.9-0.7-2.1-0.6-2.8,0.3c-0.7,0.8-0.6,2,0.2,2.7l41.8,34.5
		c0.4,0.3,0.8,0.5,1.3,0.5s0.9-0.2,1.3-0.5l41.8-34.5C93.9,60.2,94,59,93.3,58.1z"/>
	<path d="M13.2,48.3l35.5,29.2c0.4,0.3,0.8,0.5,1.3,0.5s0.9-0.2,1.3-0.5l35.6-29.3c0.9-0.7,1-2,0.3-2.8c-0.7-0.9-2-1-2.8-0.3
		L50,73.4L15.7,45.2c-0.9-0.7-2.1-0.6-2.8,0.3C12.2,46.4,12.3,47.6,13.2,48.3z"/>
	<path d="M23.1,36.7l25.6,21.1c0.4,0.3,0.8,0.5,1.3,0.5s0.9-0.2,1.3-0.5L77,36.6c0.9-0.7,1-2,0.3-2.8c-0.7-0.9-2-1-2.8-0.3L50,53.7
		L25.6,33.6c-0.9-0.7-2.1-0.6-2.8,0.3C22.1,34.8,22.2,36,23.1,36.7z"/>
</g>
</svg>
