<?xml version="1.0" encoding="utf-8"?>
<!-- Generator: Adobe Illustrator 22.1.0, SVG Export Plug-In . SVG Version: 6.00 Build 0)  -->
<svg version="1.1" id="Layer_1" xmlns="http://www.w3.org/2000/svg" xmlns:xlink="http://www.w3.org/1999/xlink" x="0px" y="0px"
	 viewBox="0 0 100 100" style="enable-background:new 0 0 100 100;" xml:space="preserve">
<g>
	<path d="M93.9,39H78.8l-4-13.3l-2.3,2.6l3.2,10.6H63.3l-0.1-0.2l-0.1,0.2H63l-4.4,5h32.8v7.3H8.6v-7.3h39.3l4.4-5h-30l25-17.6
		l9.2,13l2-2.3l-9.6-13.6c-0.5-0.7-1.4-0.8-2.1-0.4L17,39h-1.1l-1.5-5.1l22.7-24l32.1,7.6l0.5,1.8l2.3-2.6l-0.3-0.9
		c-0.2-0.5-0.6-0.9-1.1-1l-33.8-8c-0.5-0.1-1.1,0-1.4,0.4L11.6,32.5c-0.4,0.4-0.5,0.9-0.3,1.5l1.5,5.1H6.1c-1.4,0-2.5,1.1-2.5,2.5
		v12.3c0,1.4,1.1,2.5,2.5,2.5h0.8L17,91.5c0.3,1.1,1.3,1.8,2.4,1.8h61.2c1.1,0,2.1-0.7,2.4-1.8l10.1-35.2h0.8c1.4,0,2.5-1.1,2.5-2.5
		V41.5C96.4,40.1,95.3,39,93.9,39z M78.7,88.3H21.3l-9.2-32h75.7L78.7,88.3z"/>
	<path d="M50,86.6c0.8,0,1.5-0.7,1.5-1.5V59.8c0-0.8-0.7-1.5-1.5-1.5s-1.5,0.7-1.5,1.5v25.3C48.5,85.9,49.2,86.6,50,86.6z"/>
	<path d="M59.5,86.6c0.1,0,0.2,0,0.3,0c0.7,0,1.3-0.5,1.5-1.2l4.8-25.3c0.2-0.8-0.4-1.6-1.2-1.8c-0.8-0.2-1.6,0.4-1.8,1.2l-4.8,25.3
		C58.2,85.6,58.7,86.4,59.5,86.6z"/>
	<path d="M69,86.5c0.2,0.1,0.4,0.1,0.5,0.1c0.6,0,1.2-0.4,1.4-1l9.7-25.3c0.3-0.8-0.1-1.6-0.9-1.9c-0.8-0.3-1.6,0.1-1.9,0.9
		l-9.7,25.3C67.8,85.3,68.2,86.2,69,86.5z"/>
	<path d="M19.4,60.4l9.7,25.3c0.2,0.6,0.8,1,1.4,1c0.2,0,0.4,0,0.5-0.1c0.8-0.3,1.2-1.2,0.9-1.9l-9.7-25.3c-0.3-0.8-1.2-1.2-1.9-0.9
		C19.5,58.7,19.1,59.6,19.4,60.4z"/>
	<path d="M40.3,86.6c0.1,0,0.2,0,0.3,0c0.8-0.2,1.3-0.9,1.2-1.8l-4.9-25.3c-0.2-0.8-0.9-1.3-1.8-1.2c-0.8,0.2-1.3,0.9-1.2,1.8
		l4.9,25.3C38.9,86.1,39.6,86.6,40.3,86.6z"/>
	<path d="M48.7,49.2c0.4,0.3,0.9,0.5,1.3,0.5c0.6,0,1.1-0.2,1.5-0.7l30-33.9c0.7-0.8,0.7-2.1-0.2-2.8c-0.8-0.7-2.1-0.7-2.8,0.2
		l-30,33.9C47.8,47.2,47.8,48.4,48.7,49.2z"/>
</g>
</svg>
