<?xml version="1.0" encoding="utf-8"?>
<!-- Generator: Adobe Illustrator 22.1.0, SVG Export Plug-In . SVG Version: 6.00 Build 0)  -->
<svg version="1.1" id="Layer_1" xmlns="http://www.w3.org/2000/svg" xmlns:xlink="http://www.w3.org/1999/xlink" x="0px" y="0px"
	 viewBox="0 0 100 100" style="enable-background:new 0 0 100 100;" xml:space="preserve">
<g>
	<path d="M94,36.5H63l-4,5h32v7H9v-8h39l4-4H6l-2,2v12c0,2,1,3,2,3h1l10,35l2,2h62l2-2l10-35h1c1,0,2-1,2-3v-12L94,36.5z M79,85.5
		H21l-9-32h76L79,85.5z"/>
	<path d="M50,83.5l2-1v-26l-2-1l-1,1v26L50,83.5z M60,83.5l1-1l5-25l-1-2l-2,1l-5,25L60,83.5z M69,83.5h1l1-1l10-25l-1-2l-2,1
		l-10,25L69,83.5z M19,57.5l10,25l1,1h1l1-2l-10-25l-2-1L19,57.5z M39,82.5l1,1h1l1-2l-5-25l-2-1l-1,2L39,82.5z M49,46.5h3l30-34
		l-1-3h-3l-28,34v3H49z"/>
</g>
</svg>
