<?xml version="1.0" encoding="utf-8"?>
<!-- Generator: Adobe Illustrator 22.1.0, SVG Export Plug-In . SVG Version: 6.00 Build 0)  -->
<svg version="1.1" id="Layer_1" xmlns="http://www.w3.org/2000/svg" xmlns:xlink="http://www.w3.org/1999/xlink" x="0px" y="0px"
	 viewBox="0 0 100 100" style="enable-background:new 0 0 100 100;" xml:space="preserve">
<g>
	<path d="M50,16.4c10.4,0,20.1,5.3,25.8,13.7c-3.4-0.2-7.9-0.1-13.3,0.8c5.4,0.9,19.9,9.7,24,18c5.3-8.5,6.9-24.8,3.3-32.7
		c-0.8,4-2.3,7.4-3.8,10C78.4,13.6,64.7,5.7,50,5.7C29.8,5.7,12.4,20.1,8.8,40h10.9C23.1,26.2,35.5,16.4,50,16.4z"/>
	<path d="M50,83.7c-10.4,0-20.1-5.3-25.8-13.7c3.4,0.2,7.9,0.1,13.3-0.8c-5.4-0.9-19.9-9.7-24-18C8.2,59.6,6.5,76,10.2,83.9
		c0.8-4,2.3-7.4,3.8-10c7.5,12.5,21.2,20.4,36,20.4c20.2,0,37.6-14.4,41.2-34.3H80.3C76.9,73.9,64.5,83.7,50,83.7z"/>
</g>
</svg>
