<?xml version="1.0" encoding="utf-8"?>
<!-- Generator: Adobe Illustrator 22.1.0, SVG Export Plug-In . SVG Version: 6.00 Build 0)  -->
<svg version="1.1" id="Layer_1" xmlns="http://www.w3.org/2000/svg" xmlns:xlink="http://www.w3.org/1999/xlink" x="0px" y="0px"
	 viewBox="0 0 100 100" style="enable-background:new 0 0 100 100;" xml:space="preserve">
<path d="M91.3,90c1.8-2,2.8-4.7,2.9-7.6V17.6c0-2.6-0.8-5-2.3-6.9l6.2-6.2c0.6-0.6,0.6-1.5,0-2.1s-1.5-0.6-2.1,0l-6.1,6.1
	c-2-1.7-4.6-2.7-7.5-2.7H17.6c-2.8,0-5.3,1-7.3,2.5L4.2,2.1C3.6,1.6,2.6,1.6,2,2.1S1.5,3.7,2,4.3l6.2,6.2c-1.5,2-2.4,4.4-2.4,7.1
	v64.7c0,2.9,1,5.5,2.7,7.5l-6.7,6.7c-0.6,0.6-0.6,1.5,0,2.1C2.1,98.9,2.5,99,2.9,99s0.8,0,1.1-0.3l6.8-6.8c1.9,1.4,4.3,2.2,6.9,2.2
	h64.8c2.5,0,4.8-0.8,6.7-2.1l6.8,6.8c0.3,0.3,0.7,0.4,1.1,0.4s0.8-0.1,1.1-0.4c0.6-0.6,0.6-1.5,0-2.1L91.3,90z M89.2,17.6v64.8
	c0,1.6-0.6,3-1.4,4.1l-35.7-36l36.2-36.2C88.9,15.3,89.2,16.4,89.2,17.6z M17.6,10.8h64.8c1.5,0,2.8,0.5,3.9,1.3L50,48.4L13.9,11.9
	C14.9,11.2,16.2,10.8,17.6,10.8z M10.8,82.3V17.6c0-1.3,0.4-2.5,1-3.5l36.1,36.4L12.1,86.3C11.3,85.2,10.8,83.8,10.8,82.3z
	 M82.4,89.1H17.6c-1.2,0-2.3-0.3-3.3-0.8L50,52.6l35.5,35.8C84.5,88.8,83.5,89.1,82.4,89.1z"/>
</svg>
