<?xml version="1.0" encoding="utf-8"?>
<!-- Generator: Adobe Illustrator 22.1.0, SVG Export Plug-In . SVG Version: 6.00 Build 0)  -->
<svg version="1.1" id="Layer_1" xmlns="http://www.w3.org/2000/svg" xmlns:xlink="http://www.w3.org/1999/xlink" x="0px" y="0px"
	 viewBox="0 0 100 100" style="enable-background:new 0 0 100 100;" xml:space="preserve">
<path d="M82.4,94.1H17.6c-6.5,0-11.8-5.3-11.8-11.8V17.6c0-6.5,5.3-11.8,11.8-11.8h64.8c6.5,0,11.8,5.3,11.8,11.8v64.8
	C94.1,89,88.9,94.1,82.4,94.1z M17.6,10.8c-3.7,0-6.8,3.1-6.8,6.8v64.7c0,3.7,3.1,6.8,6.8,6.8h64.8c3.7,0,6.7-3,6.8-6.7V17.6
	c0-3.7-3.1-6.8-6.8-6.8H17.6z"/>
</svg>
