<?xml version="1.0" encoding="utf-8"?>
<!-- Generator: Adobe Illustrator 22.1.0, SVG Export Plug-In . SVG Version: 6.00 Build 0)  -->
<svg version="1.1" id="Layer_1" xmlns="http://www.w3.org/2000/svg" xmlns:xlink="http://www.w3.org/1999/xlink" x="0px" y="0px"
	 viewBox="0 0 100 100" style="enable-background:new 0 0 100 100;" xml:space="preserve">
<style type="text/css">
	.st0{fill:#FFFFFF;}
</style>
<path class="st0" d="M100,0L83.8,14.7c-1.4-1.1-3.1-1.7-5-1.7H21.3c-4.6,0-8.3,3.7-8.3,8.3v18.9L0.5,33L13,53.7v25
	c0,4.6,3.7,8.3,8.3,8.3h11.8l4.7,7.8l5.1-7.8h35.9c4.5,0,8.2-3.6,8.3-8.2V21.3c0-0.5-0.1-1-0.2-1.4L100,0z M17.2,24.5
	c0-4,3.2-7.3,7.3-7.3h51c1.5,0,2.9,0.5,4.1,1.2L39,55.1L17.2,42.6V24.5z M24.5,82.7c-4,0-7.3-3.2-7.3-7.3V60.7l13.3,22H24.5z
	 M82.8,75.5c-0.1,4-3.3,7.2-7.3,7.2H45.7l37.1-56.5V75.5z"/>
</svg>
