<?xml version="1.0" encoding="utf-8"?>
<!-- Generator: Adobe Illustrator 22.1.0, SVG Export Plug-In . SVG Version: 6.00 Build 0)  -->
<svg version="1.1" id="Layer_1" xmlns="http://www.w3.org/2000/svg" xmlns:xlink="http://www.w3.org/1999/xlink" x="0px" y="0px"
	 viewBox="0 0 100 100" style="enable-background:new 0 0 100 100;" xml:space="preserve">
<style type="text/css">
	.st0{fill:#FFFFFF;}
</style>
<g>
	<path class="st0" d="M93.7,39.3c-1.1-4.9-3-9.6-5.7-13.9c-1.9-3.1-4.1-5.9-6.6-8.4c-1.4-1.4-3.1-1.9-5-1.6
		c-2.2,0.4-3.8,1.8-4.4,3.9c-0.7,2.2-0.1,4.1,1.5,5.7c1,1.1,2,2.1,2.9,3.3c3.8,4.9,6.2,10.5,6.9,16.7c0.4,3,0.3,6-0.1,9
		c-0.5,3.6-1.6,7.1-3.3,10.4c-1.6,3.3-3.8,6.2-6.3,8.8c-1.4,1.4-2,3.2-1.5,5.2c0.5,2.2,1.8,3.7,3.9,4.3c2.2,0.6,4.1,0.1,5.7-1.5
		c3.9-4,7-8.5,9.3-13.6c2.6-5.9,3.9-12,3.9-18.4C94.7,45.9,94.4,42.6,93.7,39.3z"/>
	<path class="st0" d="M20.3,67.2c-2.9-4.6-4.5-9.7-5-15.1c-0.2-3.1-0.1-6.1,0.5-9.1c0.8-4.1,2.3-7.9,4.4-11.4
		c1.4-2.3,3.1-4.5,5.1-6.4c0.9-0.9,1.4-2,1.5-3.2c0.5-3.4-2.3-6.5-5.7-6.4c-1.7,0-3,0.7-4.2,1.9c-4.1,4.1-7.2,8.9-9.5,14.2
		C5,37.3,3.9,43.2,3.9,50.1c0,1.9,0.2,4.6,0.7,7.3c1,5.3,2.8,10.2,5.5,14.9c2,3.3,4.3,6.4,7,9.1c2.4,2.4,6.4,2.1,8.5-0.6
		c1.7-2.3,1.6-5.4-0.4-7.4C23.4,71.5,21.7,69.4,20.3,67.2z"/>
	<path class="st0" d="M75.8,48.6c0-2.2-0.5-5-1.3-7.6c-1.5-4.5-3.9-8.3-7.5-11.5c-1.3-1.1-2.8-1.6-4.4-1.4c-2.3,0.3-4,1.6-4.7,3.8
		c-0.8,2.2-0.2,4.2,1.4,5.9c0.5,0.5,1,0.9,1.4,1.4c3.7,4.5,4.7,9.5,2.9,15c-0.8,2.5-2.3,4.6-4.2,6.3c-1.6,1.4-2.4,3.1-2.1,5.2
		c0.4,3.8,4.6,6.1,8,4.4c0.8-0.4,1.5-1,2.1-1.6c2.3-2.1,4.1-4.6,5.5-7.3C74.9,57.5,75.9,53.3,75.8,48.6z"/>
	<path class="st0" d="M39.2,38c1.6-1.5,2.2-3.3,1.8-5.4c-0.8-4-5.6-5.9-8.9-3.4c-1.3,1-2.4,2.3-3.5,3.6c-3.8,4.8-5.8,10.3-5.8,16.5
		c0,2.1,0.2,4.3,0.7,6.3c1.3,5.2,3.8,9.6,7.7,13.2c1.5,1.4,3.3,1.9,5.3,1.5c2.7-0.5,4.7-3.2,4.4-5.9c-0.1-1.6-0.9-2.9-2-4
		c-3.9-3.8-5.4-8.4-4.6-13.8C35,43.2,36.7,40.3,39.2,38z"/>
	<path class="st0" d="M49.3,42.4c-3.8,0-6.9,3.1-6.9,6.9c0,3.8,3.1,6.9,6.9,6.9c3.8,0,6.9-3.1,6.9-6.9
		C56.2,45.5,53.1,42.4,49.3,42.4z"/>
</g>
</svg>
