<?xml version="1.0" encoding="utf-8"?>
<!-- Generator: Adobe Illustrator 22.1.0, SVG Export Plug-In . SVG Version: 6.00 Build 0)  -->
<svg version="1.1" id="Layer_1" xmlns="http://www.w3.org/2000/svg" xmlns:xlink="http://www.w3.org/1999/xlink" x="0px" y="0px"
	 viewBox="0 0 100 100" style="enable-background:new 0 0 100 100;" xml:space="preserve">
<g>
	<path d="M80.8,76.2h-0.4v-0.9c0-0.5-0.4-0.9-0.9-0.9H78c-0.5,0-0.9,0.4-0.9,0.9v0.9h-2.5c-0.5,0-0.9,0.4-0.9,0.9V78
		c0,0.1,0,0.3,0.1,0.4c-1.8,0.7-2.9,2.6-2.9,5c0,3,1.9,5.2,4.4,5.2c0.8,0,1.5-0.2,2.2-0.6c0.2,0.2,0.4,0.4,0.7,0.4h1.4
		c0.3,0,0.5-0.1,0.7-0.3c0.2-0.2,0.2-0.5,0.2-0.7c-0.1-0.6-0.1-1.4-0.1-2V79h0.4c0.5,0,0.9-0.4,0.9-0.9v-0.9
		C81.8,76.6,81.3,76.2,80.8,76.2z M77.2,84.5c-0.2,0.8-0.8,1.1-1.4,1.1c-1.4,0-1.5-1.5-1.5-2.2c0-0.8,0.2-2.3,1.5-2.3
		c0.7,0,1.2,0.4,1.3,1c0,0.1,0,0.1,0.1,0.2c0,0.1,0,0.2,0,0.3c0,0,0,0,0,0.1l0.1,1.4c0,0.1,0,0.2,0,0.2
		C77.3,84.3,77.3,84.4,77.2,84.5z"/>
	<path d="M34.3,19.3h47.9c2,0,3.6-1.6,3.6-3.6S84.2,12,82.2,12H34.3c-2,0-3.6,1.6-3.6,3.6S32.3,19.3,34.3,19.3z"/>
	<path d="M17.8,19.3H22c2,0,3.6-1.6,3.6-3.6S24,12,22,12h-4.2c-2,0-3.6,1.6-3.6,3.6S15.8,19.3,17.8,19.3z"/>
	<path d="M82.2,28.4H34.3c-2,0-3.6,1.6-3.6,3.6s1.6,3.6,3.6,3.6h47.9c2,0,3.6-1.6,3.6-3.6S84.2,28.4,82.2,28.4z"/>
	<path d="M17.8,35.7H22c2,0,3.6-1.6,3.6-3.6S24,28.4,22,28.4h-4.2c-2,0-3.6,1.6-3.6,3.6S15.8,35.7,17.8,35.7z"/>
	<path d="M82.2,44.8H34.3c-2,0-3.6,1.6-3.6,3.6s1.6,3.6,3.6,3.6h47.9c2,0,3.6-1.6,3.6-3.6S84.2,44.8,82.2,44.8z"/>
	<path d="M17.8,52H22c2,0,3.6-1.6,3.6-3.6S24,44.8,22,44.8h-4.2c-2,0-3.6,1.6-3.6,3.6S15.8,52,17.8,52z"/>
	<path d="M82.2,61.1H17.8c-2,0-3.6,1.6-3.6,3.6s1.6,3.6,3.6,3.6h64.4c2,0,3.6-1.6,3.6-3.6C85.8,62.8,84.2,61.1,82.2,61.1z"/>
	<path d="M27,74.5c-1.6-1.2-3.9-0.9-5.1,0.7l-7,9.3c-1.2,1.6-0.9,3.9,0.7,5.1c0.7,0.5,1.4,0.7,2.2,0.7c1.1,0,2.2-0.5,2.9-1.4l7-9.3
		C28.9,78,28.6,75.7,27,74.5z"/>
	<path d="M44.4,74.5c-1.6-1.2-3.9-0.9-5.1,0.7l-7.1,9.3c-1.2,1.6-0.9,3.9,0.7,5.1c0.7,0.5,1.4,0.7,2.2,0.7c1.1,0,2.2-0.5,2.9-1.4
		l7.1-9.3C46.3,78,46,75.7,44.4,74.5z"/>
	<path d="M61.7,74.5c-1.6-1.2-3.9-0.9-5.1,0.7l-7.1,9.3c-1.2,1.6-0.9,3.9,0.7,5.1c0.7,0.5,1.4,0.7,2.2,0.7c1.1,0,2.2-0.5,2.9-1.4
		l7.1-9.3C63.6,78,63.3,75.7,61.7,74.5z"/>
</g>
</svg>
