<?xml version="1.0" encoding="utf-8"?>
<!-- Generator: Adobe Illustrator 22.1.0, SVG Export Plug-In . SVG Version: 6.00 Build 0)  -->
<svg version="1.1" id="Layer_1" xmlns="http://www.w3.org/2000/svg" xmlns:xlink="http://www.w3.org/1999/xlink" x="0px" y="0px"
	 viewBox="0 0 100 100" style="enable-background:new 0 0 100 100;" xml:space="preserve">
<path d="M79.3,97.8h-1.1L50,82.6L21.7,97.8h-2.2c-1.1-1.1-2.2-2.2-1.1-3.3L23.8,63L1.1,41.2L0,38l2.2-1l31.5-4.3L47.8,3.2L50,2.1
	l2.2,1.1l14.1,29.3l31.5,4.3l2.2,1.1l-1.1,3.3L76.1,63l5.4,31.5c1.1,1.1,0,2.2-1.1,3.3C80.4,97.9,79.3,97.9,79.3,97.8z M50,77.1h1.1
	l25,13l-5.4-27.2l1.1-2.2l19.6-19.6l-27.2-4.3l-2.2-1l-12-25l-12,25l-2.2,1.1L8.7,41.2l19.6,19.6l1.1,2.2l-5.5,27.1l25-13
	C48.9,77.1,50,77.1,50,77.1z"/>
</svg>
