<?xml version="1.0" encoding="utf-8"?>
<!-- Generator: Adobe Illustrator 22.1.0, SVG Export Plug-In . SVG Version: 6.00 Build 0)  -->
<svg version="1.1" id="Layer_1" xmlns="http://www.w3.org/2000/svg" xmlns:xlink="http://www.w3.org/1999/xlink" x="0px" y="0px"
	 viewBox="0 0 100 100" style="enable-background:new 0 0 100 100;" xml:space="preserve">
<g>
	<path d="M67.3,66.9C84.1,57.4,90,36,80.4,19.2S49.5-3.5,32.7,6.1S10,37,19.6,53.8C27,66.7,41.7,73.6,56.3,70.9c-1,5,1,12,3,18
		c2,5,4,8,7,9c1.9,0.8,4.1,0.8,6,0c6-2,8-8,4-16C74.3,76.9,71.3,69.9,67.3,66.9z M19.3,36.9c0-17,14-30,30-30s30,13,30,30
		s-13,30-30,30S19.3,52.9,19.3,36.9z M70.3,92.9h-2c-1,0-3-2-4-6c-3-6-4-14-3-18c0,1,0,0,0,0h1c3,2,7,9,10,15
		C75.3,91.9,72.3,92.9,70.3,92.9z"/>
	<path d="M24.3,23.9h4v22h-4V23.9z M45.3,30.9l-2-1h-2c-2,0-4,0-5,2v-2h-4v16h4v-7l1-4l1-1l2-1h1l1,1v12h4v-10v-3L45.3,30.9z
		 M53.3,23.9l-2,1v5h-2v3h2v13h4v-13h3v-3h-3v-1v-2h3l1-3l-4-1L53.3,23.9z M75.3,37.9l-2-6l-6-3l-4,1l-3,4l-1,4l1,5l3,3l4,1l6-3
		L75.3,37.9z M70.3,41.9l-3,1l-3-1l-1-4l1-4l3-1l3,1l1,4L70.3,41.9z"/>
</g>
</svg>
